# xmcd
#
# Track frame offsets:
#	150
#	12640
#	26482
#	38590
#	52350
#	63917
#	75977
#	90245
#	104032
#	117192
#	128030
#	141457
#	155767
#	169290
#	181457
#	194220
#	206635
#	218187
#
# Disc length: 3102 seconds
#
# Revision: 3
# Processed by: cddbd v1.4PL0 Copyright (c) Steve Scherf et al.
# Submitted via: audiograbber 1.82.02
#
DISCID=0d0c1c12
DTITLE=Various Artist - Cookin' the blues
DYEAR=1900
DGENRE=
TTITLE0=Howlin' Wolf - Spoonful
TTITLE1=Muddy Waters - I Be's troubled
TTITLE2=Jimmy Witherspoon - Ain't Nobody's Business
TTITLE3=Robert Nighthawk - Sweet Black Angel
TTITLE4=Sonny Boy Williamson - Don't Start Me To Talkin'
TTITLE5=Elmore James - The Sun is Shinning
TTITLE6=Lowell Fulson - Reconsider Baby
TTITLE7=Chuck Berry - Wee Wee Hours
TTITLE8=Muddy Waters - Mannish Boy
TTITLE9=Little Walter - Blue Midnight
TTITLE10=Buddy Guy - My Time After A While
TTITLE11=Otis Rush - So Many Roads
TTITLE12=John Lee Hooker - One Bourbon, One Scotch, One Beer
TTITLE13=Bobby Bland - I Pity The Fool
TTITLE14=Howlin' Wolf - Killing Floor
TTITLE15=Bo Diddley - Pretty Thing
TTITLE16=Etta James - I'd Rather Go Blind
TTITLE17=BB King - Ain't Nobody Home
EXTD=
EXTT0=
EXTT1=
EXTT2=
EXTT3=
EXTT4=
EXTT5=
EXTT6=
EXTT7=
EXTT8=
EXTT9=
EXTT10=
EXTT11=
EXTT12=
EXTT13=
EXTT14=
EXTT15=
EXTT16=
EXTT17=
PLAYORDER=
